<svg xmlns="http://www.w3.org/2000/svg" width="641" height="641" viewBox="-0.5 -0.5 641 641"><line x1="0" y1="0" x2="0" y2="640" stroke="#BCD3FF" stroke-opacity="0.22" stroke-width="1"/><line x1="0" y1="0" x2="640" y2="0" stroke="#BCD3FF" stroke-opacity="0.22" stroke-width="1"/><line x1="40" y1="0" x2="40" y2="640" stroke="#BCD3FF" stroke-opacity="0.1" stroke-width="1"/><line x1="0" y1="40" x2="640" y2="40" stroke="#BCD3FF" stroke-opacity="0.1" stroke-width="1"/><line x1="80" y1="0" x2="80" y2="640" stroke="#BCD3FF" stroke-opacity="0.1" stroke-width="1"/><line x1="0" y1="80" x2="640" y2="80" stroke="#BCD3FF" stroke-opacity="0.1" stroke-width="1"/><line x1="120" y1="0" x2="120" y2="640" stroke="#BCD3FF" stroke-opacity="0.1" stroke-width="1"/><line x1="0" y1="120" x2="640" y2="120" stroke="#BCD3FF" stroke-opacity="0.1" stroke-width="1"/><line x1="160" y1="0" x2="160" y2="640" stroke="#BCD3FF" stroke-opacity="0.1" stroke-width="1"/><line x1="0" y1="160" x2="640" y2="160" stroke="#BCD3FF" stroke-opacity="0.1" stroke-width="1"/><line x1="200" y1="0" x2="200" y2="640" stroke="#BCD3FF" stroke-opacity="0.1" stroke-width="1"/><line x1="0" y1="200" x2="640" y2="200" stroke="#BCD3FF" stroke-opacity="0.1" stroke-width="1"/><line x1="240" y1="0" x2="240" y2="640" stroke="#BCD3FF" stroke-opacity="0.1" stroke-width="1"/><line x1="0" y1="240" x2="640" y2="240" stroke="#BCD3FF" stroke-opacity="0.1" stroke-width="1"/><line x1="280" y1="0" x2="280" y2="640" stroke="#BCD3FF" stroke-opacity="0.1" stroke-width="1"/><line x1="0" y1="280" x2="640" y2="280" stroke="#BCD3FF" stroke-opacity="0.1" stroke-width="1"/><line x1="320" y1="0" x2="320" y2="640" stroke="#BCD3FF" stroke-opacity="0.22" stroke-width="1"/><line x1="0" y1="320" x2="640" y2="320" stroke="#BCD3FF" stroke-opacity="0.22" stroke-width="1"/><line x1="360" y1="0" x2="360" y2="640" stroke="#BCD3FF" stroke-opacity="0.1" stroke-width="1"/><line x1="0" y1="360" x2="640" y2="360" stroke="#BCD3FF" stroke-opacity="0.1" stroke-width="1"/><line x1="400" y1="0" x2="400" y2="640" stroke="#BCD3FF" stroke-opacity="0.1" stroke-width="1"/><line x1="0" y1="400" x2="640" y2="400" stroke="#BCD3FF" stroke-opacity="0.1" stroke-width="1"/><line x1="440" y1="0" x2="440" y2="640" stroke="#BCD3FF" stroke-opacity="0.1" stroke-width="1"/><line x1="0" y1="440" x2="640" y2="440" stroke="#BCD3FF" stroke-opacity="0.1" stroke-width="1"/><line x1="480" y1="0" x2="480" y2="640" stroke="#BCD3FF" stroke-opacity="0.1" stroke-width="1"/><line x1="0" y1="480" x2="640" y2="480" stroke="#BCD3FF" stroke-opacity="0.1" stroke-width="1"/><line x1="520" y1="0" x2="520" y2="640" stroke="#BCD3FF" stroke-opacity="0.1" stroke-width="1"/><line x1="0" y1="520" x2="640" y2="520" stroke="#BCD3FF" stroke-opacity="0.1" stroke-width="1"/><line x1="560" y1="0" x2="560" y2="640" stroke="#BCD3FF" stroke-opacity="0.1" stroke-width="1"/><line x1="0" y1="560" x2="640" y2="560" stroke="#BCD3FF" stroke-opacity="0.1" stroke-width="1"/><line x1="600" y1="0" x2="600" y2="640" stroke="#BCD3FF" stroke-opacity="0.1" stroke-width="1"/><line x1="0" y1="600" x2="640" y2="600" stroke="#BCD3FF" stroke-opacity="0.1" stroke-width="1"/><line x1="640" y1="0" x2="640" y2="640" stroke="#BCD3FF" stroke-opacity="0.22" stroke-width="1"/><line x1="0" y1="640" x2="640" y2="640" stroke="#BCD3FF" stroke-opacity="0.22" stroke-width="1"/></svg>